<svg xmlns="http://www.w3.org/2000/svg" fill="none" viewBox="0 0 220 74">
  <path fill="#FF6854" d="M36.45 55.84a18.59 18.59 0 1 1 8.03-35.34l-1.52 3.16a14.92 14.92 0 0 0-11.5-.64 15.1 15.1 0 0 0-9.22 19.22 15.06 15.06 0 0 0 19.18 9.24l1.16 3.31a18.44 18.44 0 0 1-6.13 1.05Z"/>
  <path fill="#2A274B" d="M88.37 52.52v7.25c0 .4.01.79.04 1.2.03.4.12.77.27 1.1.14.33.38.6.7.8.31.22.76.32 1.34.32.57 0 1.02-.1 1.33-.31a2 2 0 0 0 .7-.8c.15-.34.24-.7.27-1.11.03-.41.05-.8.05-1.2v-7.25h3.44v7.73c0 2.08-.47 3.6-1.42 4.55-.95.95-2.4 1.43-4.37 1.43-1.97 0-3.43-.48-4.38-1.43-.96-.96-1.44-2.47-1.44-4.55v-7.73h3.47Zm13.41 13.34V52.52h3.46l6.4 8.15v-8.15h3.44v13.34h-3.45l-6.4-8.16v8.16h-3.45Zm22.02-13.34h-3.46v13.34h3.47V52.52Zm7.64 0 3.21 8.12 3.24-8.12h3.76l-5.62 13.34h-2.75l-5.6-13.34h3.76Zm21.66 2.93h-4.12v2.23h3.89v2.94h-3.89v2.3h4.12v2.94h-7.58V52.52h7.58v2.93Zm8.42 3.03h.66c.68 0 1.2-.14 1.57-.42.36-.29.55-.7.55-1.23s-.19-.93-.55-1.22a2.52 2.52 0 0 0-1.57-.42h-.66v3.29Zm7.62 7.38h-4.31l-3.3-5.13v5.13h-3.47V52.52h5.39c.74 0 1.39.1 1.94.32a3.78 3.78 0 0 1 2.18 2.2c.19.5.28 1.03.28 1.6 0 1.01-.25 1.84-.73 2.47a3.7 3.7 0 0 1-2.17 1.28l4.19 5.47Zm11.23-9.93c-.37-.3-.75-.53-1.13-.68a3 3 0 0 0-1.1-.22c-.44 0-.8.1-1.09.32a1 1 0 0 0-.42.83c0 .23.07.43.21.58.14.16.33.29.56.4.23.11.48.21.77.3.3.08.58.16.86.26 1.13.38 1.96.88 2.48 1.51.53.63.79 1.46.79 2.47a5 5 0 0 1-.34 1.86 3.87 3.87 0 0 1-1.01 1.42c-.44.4-.99.7-1.63.92a8 8 0 0 1-6.86-1.18l1.48-2.79c.52.46 1.03.8 1.54 1.03.5.22 1 .33 1.5.33.57 0 .99-.13 1.27-.38a1.19 1.19 0 0 0 .3-1.41 1.13 1.13 0 0 0-.35-.41 2.84 2.84 0 0 0-.64-.34c-.27-.11-.59-.23-.97-.36-.44-.14-.88-.3-1.31-.47-.43-.17-.82-.4-1.15-.68-.34-.28-.6-.64-.81-1.07a4.76 4.76 0 0 1 .02-3.43 4 4 0 0 1 2.36-2.28 5.47 5.47 0 0 1 1.92-.32 9.14 9.14 0 0 1 4.13 1.08l-1.38 2.71Zm10.03-3.41h-3.46v13.34h3.47V52.52Zm10.33 2.93v10.41h-3.47v-10.4h-2.84v-2.94h9.15v2.93h-2.84Zm10.93 4-4.86-6.93h4.14l2.47 3.64 2.46-3.64H220l-4.88 6.93v6.41h-3.46v-6.4ZM57.26 43.66h1.96l2.3-6.35 2.3 6.34h1.96L70.3 31.2h-1.14l-3.67 10.1-3.8-10.1H59.3l1.64 4.54-2.02 5.57-3.8-10.1h-3.51v.4c1.4.24 1.38.28 1.75 1.3l3.9 10.74Zm43.49-.91c-.82 0-1.24-.46-1.24-1.39V31.18H97.1v12.44h7.34v-.87h-3.69Zm-9.84-4.88c1.98-.25 3.09-1.26 3.09-3.38 0-3.3-3.83-3.3-5.2-3.3h-4.1l.01 12.44h2.41V32.06h1.53c1.55 0 2.7.55 2.7 2.55 0 2.27-1.68 2.71-2.88 2.71h-.31l3.95 6.3h2.64l-3.85-5.75Zm19.27 4.87c-1.27 0-1.27-.5-1.27-1.22l-.01-9.48h1.51c3.47 0 3.86 2.08 3.86 5.36 0 3.73-.73 5.34-4.09 5.34Zm.58-11.57h-4.27v12.44h3.67c3.6 0 6.67-.41 6.67-6.25 0-5.23-2.57-6.19-6.07-6.19ZM76.53 43.16c-2.76 0-2.98-3.18-2.98-5.74s.2-5.74 2.97-5.74c2.7 0 2.87 3.26 2.87 5.74 0 2.48-.15 5.74-2.86 5.74Zm0-12.39c-4.38 0-5.6 2.6-5.6 6.7.01 4.12 1.23 6.6 5.6 6.6 4.2 0 5.47-2.5 5.47-6.6 0-4.12-1.28-6.7-5.48-6.7Zm64.37.38.01 8.08c0 1.87-.07 3.92-3.12 3.92-2.64 0-2.64-2.05-2.64-3.91l-.01-8.09h-2.4v8.58c0 3.36 1.8 4.3 5.05 4.29 4.38 0 4.45-2.75 4.45-5.22v-7.65h-1.33Zm38.87.83v-.87l-9.97.01v.87h3.78l.01 11.56H176V31.98h3.77Zm-13.19-.86v10.06h-.03l-5.82-10.05h-2.42v12.44h1.17l-.01-10.52h.04l6.1 10.51h2.14V31.12h-1.17Zm-15.61 10.12-2-5.31h3.93l-1.93 5.31Zm3.66-10.1-1.41 3.92h-4.58l-1.48-3.92h-3.5v.4c1.4.24 1.37.28 1.75 1.3l3.9 10.74h1.95l4.52-12.45h-1.15Zm-24.68 6.28c0-4.11-1.28-6.7-5.48-6.69-4.38 0-5.59 2.59-5.58 6.7 0 4.12 1.21 6.6 5.6 6.6h6.04v-.41c-1.4-.23-2.43-.45-1.78-1.3.87-1.13 1.2-2.8 1.2-4.9Zm-5.47 5.7c-2.77 0-2.98-3.18-2.99-5.74 0-2.56.21-5.74 2.98-5.74 2.7 0 2.87 3.26 2.87 5.73 0 2.5-.16 5.75-2.87 5.75ZM65.43 54.23a33.2 33.2 0 0 1-27.06 16.19v3.5c12.33-.5 23.6-7.1 30.06-17.88l-3-1.81ZM3.5 38.69H0a36.95 36.95 0 0 0 32.06 34.97V70.1A33.44 33.44 0 0 1 3.5 38.69ZM5.2 18A36.76 36.76 0 0 0 .26 32.37h3.53A33.37 33.37 0 0 1 54 8.36l1.8-3.02A36.88 36.88 0 0 0 5.2 18Z"/>
  <path fill="#FEC260" d="M21.02 18.76a24.07 24.07 0 0 1 15.18-5.8l-.08-3.5A27.55 27.55 0 0 0 18.6 16.2l2.41 2.56ZM16 24.71a24.5 24.5 0 0 1 2.08-2.93l-2.42-2.57A27.59 27.59 0 0 0 9.87 43.9a27.62 27.62 0 0 0 5.8 11.27l2.48-2.49a24.13 24.13 0 0 1-4.88-9.64A24.1 24.1 0 0 1 16 24.71Zm34 32.71a24.28 24.28 0 0 1-28.88-1.75l-2.49 2.49a27.62 27.62 0 0 0 18.09 6.72c5.31 0 10.63-1.52 15.2-4.53L50 57.42Zm7.45-33.85 2.97-1.84A27.58 27.58 0 0 0 41.55 9.44L41 12.9a24.27 24.27 0 0 1 16.45 10.67Z"/>
  <path fill="#19B6BC" d="M30.68 34.83a6.47 6.47 0 0 1 9.5-3.4 6.47 6.47 0 0 1 2.78 3.4h3.63a10 10 0 0 0-19.54 0h3.63Zm12.28 4.38a6.6 6.6 0 0 1-4.56 4.14 6.48 6.48 0 0 1-7.71-4.14h-3.64l.05.24a9.97 9.97 0 0 0 9.7 7.6 10.08 10.08 0 0 0 8.61-4.87 10 10 0 0 0 1.18-2.97h-3.63Z"/>
</svg>
